<svg id="visual" viewBox="0 0 1920 1080" width="1920" height="1080" xmlns="http://www.w3.org/2000/svg" xmlns:xlink="http://www.w3.org/1999/xlink" version="1.1"><rect x="0" y="0" width="1920" height="1080" fill="#ffffff"></rect><defs><linearGradient id="grad1_0" x1="43.8%" y1="0%" x2="100%" y2="100%"><stop offset="14.444444444444446%" stop-color="#ffffff" stop-opacity="1"></stop><stop offset="85.55555555555554%" stop-color="#ffffff" stop-opacity="1"></stop></linearGradient></defs><defs><linearGradient id="grad2_0" x1="0%" y1="0%" x2="56.3%" y2="100%"><stop offset="14.444444444444446%" stop-color="#ffffff" stop-opacity="1"></stop><stop offset="85.55555555555554%" stop-color="#ffffff" stop-opacity="1"></stop></linearGradient></defs><g transform="translate(1920, 0)"><path d="M0 486C-48.2 444.4 -96.3 402.8 -160 386.2C-223.6 369.6 -302.7 378 -343.7 343.7C-384.6 309.3 -387.3 232 -404.7 167.6C-422 103.2 -454 51.6 -486 0L0 0Z" fill="#fe9d1b"></path></g><g transform="translate(0, 1080)"><path d="M0 -486C67 -483.9 134 -481.8 186 -449C237.9 -416.2 274.8 -352.6 297.7 -297.7C320.6 -242.8 329.4 -196.6 358.5 -148.5C387.5 -100.3 436.8 -50.2 486 0L0 0Z" fill="#fe9d1b"></path></g></svg>