<svg id="visual" viewBox="0 0 1920 1080" width="1920" height="1080" xmlns="http://www.w3.org/2000/svg" xmlns:xlink="http://www.w3.org/1999/xlink" version="1.1"><rect x="0" y="0" width="1920" height="1080" fill="#F2F3F4"></rect><defs><linearGradient id="grad1_0" x1="43.8%" y1="100%" x2="100%" y2="0%"><stop offset="14.444444444444446%" stop-color="#f2f3f4" stop-opacity="1"></stop><stop offset="85.55555555555554%" stop-color="#f2f3f4" stop-opacity="1"></stop></linearGradient></defs><defs><linearGradient id="grad2_0" x1="0%" y1="100%" x2="56.3%" y2="0%"><stop offset="14.444444444444446%" stop-color="#f2f3f4" stop-opacity="1"></stop><stop offset="85.55555555555554%" stop-color="#f2f3f4" stop-opacity="1"></stop></linearGradient></defs><g transform="translate(1920, 1080)"><path d="M-486 0C-468.4 -59.5 -450.8 -119 -429.6 -177.9C-408.4 -236.9 -383.6 -295.4 -342.9 -342.9C-302.3 -390.5 -245.8 -427 -186 -449C-126.2 -471 -63.1 -478.5 0 -486L0 0Z" fill="#0066ff"></path></g><g transform="translate(0, 0)"><path d="M486 0C445 54.9 404 109.9 369.6 153.1C335.1 196.3 307.1 227.7 281.4 281.4C255.8 335.2 232.5 411.2 186 449C139.5 486.8 69.7 486.4 0 486L0 0Z" fill="#0066ff"></path></g></svg>