<svg id="visual" viewBox="0 0 675 900" width="675" height="900" xmlns="http://www.w3.org/2000/svg" xmlns:xlink="http://www.w3.org/1999/xlink" version="1.1"><path d="M0 591L16 581.2C32 571.3 64 551.7 96.2 545.8C128.3 540 160.7 548 192.8 562C225 576 257 596 289.2 609.8C321.3 623.7 353.7 631.3 385.8 635C418 638.7 450 638.3 482.2 619.3C514.3 600.3 546.7 562.7 578.8 557.5C611 552.3 643 579.7 659 593.3L675 607L675 901L659 901C643 901 611 901 578.8 901C546.7 901 514.3 901 482.2 901C450 901 418 901 385.8 901C353.7 901 321.3 901 289.2 901C257 901 225 901 192.8 901C160.7 901 128.3 901 96.2 901C64 901 32 901 16 901L0 901Z" fill="#77a3e6"></path><path d="M0 692L16 696.5C32 701 64 710 96.2 712.3C128.3 714.7 160.7 710.3 192.8 696.2C225 682 257 658 289.2 639.8C321.3 621.7 353.7 609.3 385.8 604.8C418 600.3 450 603.7 482.2 616.8C514.3 630 546.7 653 578.8 650.8C611 648.7 643 621.3 659 607.7L675 594L675 901L659 901C643 901 611 901 578.8 901C546.7 901 514.3 901 482.2 901C450 901 418 901 385.8 901C353.7 901 321.3 901 289.2 901C257 901 225 901 192.8 901C160.7 901 128.3 901 96.2 901C64 901 32 901 16 901L0 901Z" fill="#5d95ef"></path><path d="M0 674L16 686C32 698 64 722 96.2 731.5C128.3 741 160.7 736 192.8 739.2C225 742.3 257 753.7 289.2 759.8C321.3 766 353.7 767 385.8 760.5C418 754 450 740 482.2 737.8C514.3 735.7 546.7 745.3 578.8 738.2C611 731 643 707 659 695L675 683L675 901L659 901C643 901 611 901 578.8 901C546.7 901 514.3 901 482.2 901C450 901 418 901 385.8 901C353.7 901 321.3 901 289.2 901C257 901 225 901 192.8 901C160.7 901 128.3 901 96.2 901C64 901 32 901 16 901L0 901Z" fill="#4287f6"></path><path d="M0 723L16 737C32 751 64 779 96.2 791C128.3 803 160.7 799 192.8 794.3C225 789.7 257 784.3 289.2 783.2C321.3 782 353.7 785 385.8 785C418 785 450 782 482.2 776.8C514.3 771.7 546.7 764.3 578.8 759C611 753.7 643 750.3 659 748.7L675 747L675 901L659 901C643 901 611 901 578.8 901C546.7 901 514.3 901 482.2 901C450 901 418 901 385.8 901C353.7 901 321.3 901 289.2 901C257 901 225 901 192.8 901C160.7 901 128.3 901 96.2 901C64 901 32 901 16 901L0 901Z" fill="#2577fc"></path><path d="M0 852L16 852.8C32 853.7 64 855.3 96.2 856.7C128.3 858 160.7 859 192.8 847.7C225 836.3 257 812.7 289.2 805.5C321.3 798.3 353.7 807.7 385.8 809.2C418 810.7 450 804.3 482.2 803.5C514.3 802.7 546.7 807.3 578.8 808C611 808.7 643 805.3 659 803.7L675 802L675 901L659 901C643 901 611 901 578.8 901C546.7 901 514.3 901 482.2 901C450 901 418 901 385.8 901C353.7 901 321.3 901 289.2 901C257 901 225 901 192.8 901C160.7 901 128.3 901 96.2 901C64 901 32 901 16 901L0 901Z" fill="#0066ff"></path></svg>