<svg id="visual" viewBox="0 0 900 600" width="900" height="600" xmlns="http://www.w3.org/2000/svg" xmlns:xlink="http://www.w3.org/1999/xlink" version="1.1"><path d="M710 600L701 583.3C692 566.7 674 533.3 675.5 500C677 466.7 698 433.3 702 400C706 366.7 693 333.3 676.2 300C659.3 266.7 638.7 233.3 627.7 200C616.7 166.7 615.3 133.3 620.7 100C626 66.7 638 33.3 644 16.7L650 0L900 0L900 16.7C900 33.3 900 66.7 900 100C900 133.3 900 166.7 900 200C900 233.3 900 266.7 900 300C900 333.3 900 366.7 900 400C900 433.3 900 466.7 900 500C900 533.3 900 566.7 900 583.3L900 600Z" fill="#0066FF" stroke-linecap="round" stroke-linejoin="miter"></path></svg>