<svg id="visual" viewBox="0 0 675 900" width="675" height="900" xmlns="http://www.w3.org/2000/svg" xmlns:xlink="http://www.w3.org/1999/xlink" version="1.1"><path d="M413 900L425.7 878.5C438.3 857 463.7 814 482 771.2C500.3 728.3 511.7 685.7 515.5 642.8C519.3 600 515.7 557 497 514.2C478.3 471.3 444.7 428.7 426.3 385.8C408 343 405 300 422.8 257.2C440.7 214.3 479.3 171.7 503.5 128.8C527.7 86 537.3 43 542.2 21.5L547 0L675 0L675 21.5C675 43 675 86 675 128.8C675 171.7 675 214.3 675 257.2C675 300 675 343 675 385.8C675 428.7 675 471.3 675 514.2C675 557 675 600 675 642.8C675 685.7 675 728.3 675 771.2C675 814 675 857 675 878.5L675 900Z" fill="#0066FF" stroke-linecap="round" stroke-linejoin="miter"></path></svg>