<svg id="visual" viewBox="0 0 1920 1080" width="1920" height="1080" xmlns="http://www.w3.org/2000/svg" xmlns:xlink="http://www.w3.org/1999/xlink" version="1.1"><path d="M0 319L53.3 306.3C106.7 293.7 213.3 268.3 320 233.5C426.7 198.7 533.3 154.3 640 135C746.7 115.7 853.3 121.3 960 135.5C1066.7 149.7 1173.3 172.3 1280 196C1386.7 219.7 1493.3 244.3 1600 247.7C1706.7 251 1813.3 233 1866.7 224L1920 215L1920 0L1866.7 0C1813.3 0 1706.7 0 1600 0C1493.3 0 1386.7 0 1280 0C1173.3 0 1066.7 0 960 0C853.3 0 746.7 0 640 0C533.3 0 426.7 0 320 0C213.3 0 106.7 0 53.3 0L0 0Z" fill="#0066FF" stroke-linecap="round" stroke-linejoin="miter"></path></svg>