<svg id="visual" viewBox="0 0 1920 1080" width="1920" height="1080" xmlns="http://www.w3.org/2000/svg" xmlns:xlink="http://www.w3.org/1999/xlink" version="1.1"><path d="M0 692L64 712.8C128 733.7 256 775.3 384 802.8C512 830.3 640 843.7 768 831.8C896 820 1024 783 1152 742.8C1280 702.7 1408 659.3 1536 641.2C1664 623 1792 630 1856 633.5L1920 637L1920 1081L1856 1081C1792 1081 1664 1081 1536 1081C1408 1081 1280 1081 1152 1081C1024 1081 896 1081 768 1081C640 1081 512 1081 384 1081C256 1081 128 1081 64 1081L0 1081Z" fill="#0066FF" stroke-linecap="round" stroke-linejoin="miter"></path></svg>