<svg id="visual" viewBox="0 0 1920 1080" width="1920" height="1080" xmlns="http://www.w3.org/2000/svg" xmlns:xlink="http://www.w3.org/1999/xlink" version="1.1"><path d="M0 868L45.7 875.8C91.3 883.7 182.7 899.3 274.2 904C365.7 908.7 457.3 902.3 548.8 863.5C640.3 824.7 731.7 753.3 823 716.8C914.3 680.3 1005.7 678.7 1097 702C1188.3 725.3 1279.7 773.7 1371.2 784.2C1462.7 794.7 1554.3 767.3 1645.8 760C1737.3 752.7 1828.7 765.3 1874.3 771.7L1920 778L1920 1081L1874.3 1081C1828.7 1081 1737.3 1081 1645.8 1081C1554.3 1081 1462.7 1081 1371.2 1081C1279.7 1081 1188.3 1081 1097 1081C1005.7 1081 914.3 1081 823 1081C731.7 1081 640.3 1081 548.8 1081C457.3 1081 365.7 1081 274.2 1081C182.7 1081 91.3 1081 45.7 1081L0 1081Z" fill="#0066FF" stroke-linecap="round" stroke-linejoin="miter"></path></svg>